# xmcd
#
# Track frame offsets: 
#        150
#        15926
#        33505
#        51177
#        75408
#        90121
#        109279
#        125757
#        151912
#        169263
#        188582
#        202648
#
# Disc length: 2988 seconds
#
# Revision: 0
# Processed by: cddbd v1.5.2PL0 Copyright (c) Steve Scherf et al.
# Submitted via: ExactAudioCopy v0.99pb5
#
DISCID=820baa0c
DTITLE=Justin Nozuka - You I Wind Land and Sea
DYEAR=2010
DGENRE=Pop-Folk
TTITLE0=Gray
TTITLE1=Love
TTITLE2=Carried You
TTITLE3=Heartless
TTITLE4=My Heart Is Yours
TTITLE5=Soulless Man
TTITLE6=Unwoken Dream (King With Everything)
TTITLE7=Woman Put Your Weapon Down
TTITLE8=You I Wind Land And Sea
TTITLE9=Swan In The Water
TTITLE10=Hallow Men
TTITLE11=How Low
EXTD=
EXTT0=
EXTT1=
EXTT2=
EXTT3=
EXTT4=
EXTT5=
EXTT6=
EXTT7=
EXTT8=
EXTT9=
EXTT10=
EXTT11=
PLAYORDER=
